<svg xmlns="http://www.w3.org/2000/svg">
<defs>
<font horiz-adv-x="2632" ><font-face
    font-family="Republica Minor"
    units-per-em="4096"
    panose-1="2 11 8 6 3 9 2 9 2 4"
    ascent="5286"
    descent="-1795"
    alphabetic="0" />
<missing-glyph horiz-adv-x="5200" d="M450 1280V1102L278 994L496 812L178 612L282 822L40 1022L450 1280ZM612 1380V1204L440 1096L658 914L338 712L444 922L202 1122L612 1380ZM772 1482V1304L600 1196L820 1014L500 814L604 1024L362 1224L772 1482ZM842 834V1484H974V1292Q994
1314 1022 1326Q1050 1338 1078 1338Q1238 1338 1238 1134V834H1106V1124Q1106 1206 1040 1206Q974 1206 974 1124V834H842ZM1410 1012T1426 996Q1442 980 1462 970Q1482 960 1506 960Q1530 960 1550 970Q1570 980 1586 996Q1602 1012 1610 1034Q1618 1058 1618
1082Q1618 1106 1610 1128Q1602 1150 1586 1166Q1570 1184 1550 1194Q1530 1202 1506 1202Q1482 1202 1462 1194Q1442 1184 1426 1166Q1410 1150 1402 1128Q1392 1106 1392 1082Q1392 1058 1402 1034Q1410 1012 1426 996ZM1754 1342V834H1624V900H1620Q1586 834
1488 834Q1440 832 1398 852Q1354 872 1322 904Q1290 938 1272 982Q1252 1026 1254 1076Q1252 1126 1270 1172Q1288 1218 1320 1254Q1352 1290 1396 1310Q1438 1330 1488 1330Q1580 1330 1634 1272L1754 1342ZM1792 1342H1922V1260Q1934 1294 1948 1314Q1962 1336
1978 1346Q1996 1356 2022 1360Q2046 1364 2078 1364L2036 1212Q1982 1212 1960 1188Q1938 1164 1938 1106V834H1792V1342ZM2092 1484H2236V1114H2238L2344 1340H2518L2392 1092L2544 834H2366L2238 1054H2236V834H2092V1484ZM2600 990Q2644 946 2704 946Q2768
946 2768 984Q2768 1004 2732 1014Q2716 1020 2694 1024Q2674 1028 2652 1036Q2630 1042 2612 1052Q2592 1062 2578 1080Q2564 1096 2556 1122Q2548 1146 2548 1180Q2548 1218 2562 1248Q2578 1276 2602 1296Q2626 1316 2658 1326Q2690 1334 2728 1334Q2770 1334
2812 1316Q2852 1298 2884 1268L2806 1186Q2772 1214 2730 1214Q2682 1214 2682 1186Q2682 1160 2716 1150Q2744 1142 2776 1136Q2810 1128 2838 1112Q2866 1096 2886 1066Q2904 1038 2902 986Q2902 946 2888 916Q2872 886 2846 866Q2820 846 2786 834Q2752 824

<glyph unicode=" " glyph-name="space" horiz-adv-x="787" />
<glyph unicode="!" glyph-name="exclam" horiz-adv-x="1412" d="M1312 1157H104L100 3326H1308L1312 1157ZM888 872T1018 741Q1146 613 1146 433Q1146 254 1014 123Q888 -5 705 -5Q522 -5 394 123T266 433Q266 613 395 741Q525 872 705 872Q888 872 1018 741Z" />
<glyph unicode="&quot;" glyph-name="quotedbl" horiz-adv-x="1846" d="M846 4129V2768H100V4129H846ZM1746 4129V2768H1000V4129H1746Z" />
<glyph unicode="#" glyph-name="numbersign" horiz-adv-x="4644" d="M2766 1667H2095L1878 1241H2549L2766 1667ZM2742 2941L2381 2208H3016L3381 2941H4188L3827 2208H4544L4262 1667H3557L3344 1241H4069L3786 700H3074L2709 -33H1898L2267 700H1632L1263 -33H456L821
700H100L379 1241H1091L1296 1667H575L850 2208H1575L1935 2941H2742Z" />
<glyph unicode="$" glyph-name="dollar" horiz-adv-x="3246" d="M1910 -1L1911 -271H1328L1327 -1H936Q521 -1 311 161T101 630V1232H1466V998Q1466 871 1503 816T1631 761Q1718 761 1759 822T1799 1031Q1800 1093 1793 1136T1761 1213T1692 1275T1570 1330L645
1695Q329 1822 214 1965Q100 2113 101 2366L100 2694Q100 3001 312 3163T936 3325H1327V3599H1910V3325H2310Q2725 3325 2935 3163T3146 2694L3147 2301H1791L1790 2342Q1790 2567 1616 2567Q1543 2567 1500 2526T1456 2420Q1457 2387 1465 2363T1500 2314T1573
2265T1697 2207L2774 1764Q2876 1719 2946 1662T3062 1523T3126 1326T3146 1056L3147 716Q3147 343 2945 171T2310 -1H1910Z" />
<glyph unicode="%" glyph-name="percent" horiz-adv-x="3675" d="M3454 3745L504 -178H100L3050 3745H3454ZM629 2060Q449 2060 374 2131Q301 2201 301 2377V3112Q301 3259 379 3327T629 3395H1192Q1285 3395 1350 3379T1456 3328T1516 3240T1535 3112V2377Q1535
2199 1458 2130Q1384 2060 1192 2060H629ZM849 2997V2446Q849 2396 865 2374T917 2352Q954 2352 970 2374T987 2446V2997Q987 3093 917 3093Q881 3093 865 3071T849 2997ZM2669 264Q2489 264 2414 335Q2341 405 2341 581V1316Q2341 1463 2419 1531T2669 1599H3232Q3325
1599 3390 1583T3496 1532T3556 1444T3575 1316V581Q3575 403 3498 334Q3424 264 3232 264H2669ZM2889 1201V650Q2889 600 2905 578T2957 556Q2994 556 3010 578T3027 650V1201Q3027 1297 2957 1297Q2921 1297 2905 1275T2889 1201Z" />
<glyph unicode="&amp;" glyph-name="ampersand" horiz-adv-x="3956" d="M3857 2217L3856 1794Q3856 1353 3529 1227Q3366 1163 3203 1188V620Q3204 319 3000 159Q2796 0 2392 0H914Q492 0 296 169Q100 338 101 705L100 1019Q100 1192 128 1319Q156 1446 219 1532Q283
1619 384 1675Q484 1732 634 1767Q349 1864 225 2021Q101 2178 100 2432L101 2706Q100 3008 306 3167Q514 3326 915 3326H1894Q2292 3326 2497 3167Q2704 3007 2705 2706V2320H1749L1748 2380Q1749 2468 1703 2524Q1656 2581 1579 2581Q1510 2581 1462 2523Q1416
2464 1416 2376Q1416 2151 1659 2151H1925L1924 1410H1637Q1415 1410 1415 1176L1416 983Q1415 858 1454 804Q1492 749 1576 749Q1579 749 1599 751V747H1880V751Q1948 758 1979 806Q2015 862 2016 983V1134Q2014 1160 2013 1163Q2014 1640 2404 1826Q2625 1931
2897 1925Q2965 1932 2996 1979Q3032 2035 3032 2156V2217H3857Z" />
<glyph unicode="&apos;" glyph-name="quotesingle" horiz-adv-x="946" d="M846 4129V2768H100V4129H846Z" />
<glyph unicode="(" glyph-name="parenleft" horiz-adv-x="2107" d="M2007 4137V3474H1766Q1662 3474 1599 3464T1502 3427T1457 3353T1445 3232V139Q1445 65 1457 18T1502 -55T1598 -92T1766 -103H2007V-767H1055Q586 -767 343 -605T100 -136V3507Q100 3814 343
3975T1055 4137H2007Z" />
<glyph unicode=")" glyph-name="parenright" horiz-adv-x="2107" d="M1052 4137Q1521 4137 1764 3976T2008 3507V-136Q2007 -443 1764 -605T1052 -767H100V-103H341Q445 -103 508 -93T605 -56T650 18T662 139V3232Q662 3306 650 3353T605 3426T509 3463T341 3474H100V4137H1052Z"
/>
<glyph unicode="*" glyph-name="asterisk" horiz-adv-x="1424" d="M581 3346V3605H861V3346L1048 3534L1245 3336L1051 3141H1324V2862H1064L1243 2684L1044 2486L860 2669V2403H580L581 2671L381 2471L182 2668L376 2862H100V3141H389L194 3336L392 3534L581 3346Z" />
<glyph unicode="+" glyph-name="plus" horiz-adv-x="2066" d="M654 1286H100V2044H654V2598H1412V2044H1966V1286H1412V732H654V1286Z" />
<glyph unicode="," glyph-name="comma" horiz-adv-x="1074" d="M501 -11Q341 -1 224 114Q100 241 100 423Q100 601 224 731Q355 860 534 860Q717 860 846 731Q975 603 974 423Q974 318 928 230Q923 214 907 192Q881 151 844 114Q841 111 838 108L837 106Q680 -65
278 -177L280 -104Q399 -71 501 -11Z" />
<glyph unicode="-" glyph-name="hyphen" horiz-adv-x="2066" d="M100 2044H1966V1286H100V2044Z" />
<glyph unicode="." glyph-name="period" horiz-adv-x="1059" d="M705 860T834 733Q958 608 958 432Q959 256 830 129Q705 3 527 3Q349 3 224 128T99 432Q99 608 225 733Q351 860 527 860Q705 860 834 733Z" />
<glyph unicode="/" glyph-name="slash" horiz-adv-x="2294" d="M1298 3658H2194L995 -337H100L1298 3658Z" />
<glyph unicode="0" glyph-name="zero" horiz-adv-x="3304" d="M926 0Q473 0 282 179Q99 353 99 796V2644Q99 3013 296 3184T925 3355H2340Q2573 3355 2736 3314T3004 3188T3155 2967T3203 2644V796Q3203 349 3010 175Q2824 0 2341 0H926ZM1478 2355L1479 971Q1478
844 1518 789T1650 733Q1742 733 1783 788T1825 971L1824 2355Q1824 2597 1649 2597Q1558 2597 1519 2540T1478 2355Z" />
<glyph unicode="1" glyph-name="one" horiz-adv-x="1831" d="M382 0V2126H100V3326H1731V0H382Z" />
<glyph unicode="2" glyph-name="two" horiz-adv-x="3242" d="M99 2V709L1669 2071Q1723 2123 1754 2187T1785 2320Q1786 2436 1750 2492T1626 2549Q1548 2549 1502 2493T1456 2348L1455 2151H99V2707Q100 3008 311 3167T932 3326H2308Q2720 3326 2931 3167T3141
2707V2143Q3141 1926 3090 1792T2923 1556L1987 749H3141V2H99Z" />
<glyph unicode="3" glyph-name="three" horiz-adv-x="3218" d="M3118 719Q3118 346 2918 174T2289 2H924Q513 2 306 164T99 633V1211H1455V1002Q1456 879 1492 822T1616 764Q1702 764 1741 819T1779 1002V1198Q1779 1436 1553 1436H1261V2190H1532Q1779 2190 1779
2419Q1779 2509 1732 2568T1613 2628Q1535 2628 1488 2571T1440 2423V2362H99V2695Q100 3002 310 3164T925 3326H2290Q2698 3326 2908 3164T3117 2695V2476Q3118 2218 2991 2059T2575 1800Q2727 1764 2829 1707T2997 1561T3089 1344T3118 1039V719Z" />
<glyph unicode="4" glyph-name="four" horiz-adv-x="3602" d="M1283 1423H1694V2333L1283 1423ZM1694 2V661H100V1341L1027 3328H3055V1423H3502V661H3055V2H1694Z" />
<glyph unicode="5" glyph-name="five" horiz-adv-x="3192" d="M1443 1086Q1443 969 1481 915T1605 860Q1691 860 1730 912T1770 1086V1390Q1770 1511 1731 1563T1606 1616H101L100 3326H3092L3093 2605H1441L1440 2391L2216 2395Q2653 2395 2873 2214T3092 1666V817Q3093
330 2897 166T2276 2H918Q514 2 307 156T100 602V1211H1443V1086Z" />
<glyph unicode="6" glyph-name="six" horiz-adv-x="3202" d="M1441 2132Q1628 2136 1815 2136Q2002 2136 2197 2136Q3102 2136 3102 1370V711Q3102 342 2905 172T2280 2H922Q512 2 306 162T100 629V2755Q100 3062 306 3222T922 3382H2280Q2687 3382 2894 3222T3102
2755V2325H1764V2419Q1764 2509 1718 2564T1595 2620Q1509 2620 1475 2561T1441 2349V2132ZM1773 973V1121Q1773 1334 1607 1334Q1521 1334 1483 1281T1444 1112V973Q1444 760 1607 760Q1773 760 1773 973Z" />
<glyph unicode="7" glyph-name="seven" horiz-adv-x="3012" d="M100 0L1388 2568H100V3326H2912V2462L1669 0H100Z" />
<glyph unicode="8" glyph-name="eight" horiz-adv-x="3195" d="M1431 2591V2390Q1432 2263 1470 2204T1596 2145Q1683 2145 1724 2202T1764 2390V2591Q1765 2722 1724 2781T1596 2841Q1509 2841 1470 2784T1431 2591ZM3095 719Q3095 346 2895 174T2264 2H930Q499
2 300 174T100 719V1039Q101 1219 129 1346T222 1563T389 1708T643 1800Q355 1899 228 2056T101 2476L100 2755Q100 3062 311 3224T929 3386H2263Q2673 3386 2884 3224T3095 2755L3096 2476Q3095 2218 2969 2059T2552 1800Q2703 1764 2806 1707T2974 1561T3067
1344T3095 1039V719ZM1437 1088V883Q1438 760 1476 701T1605 641Q1773 641 1773 883V1088Q1774 1219 1732 1278T1605 1338Q1515 1338 1476 1281T1437 1088Z" />
<glyph unicode="9" glyph-name="nine" horiz-adv-x="3202" d="M1761 1252Q1574 1248 1387 1248Q1201 1248 1005 1248Q100 1248 101 2014L100 2673Q100 3042 297 3212T922 3382H2280Q2690 3382 2896 3222T3102 2755V629Q3102 322 2896 162T2280 2H922Q515 2 308
162T100 629V1059H1438V965Q1438 875 1484 820T1607 764Q1693 764 1727 823T1762 1035L1761 1252ZM1429 2411V2263Q1429 2050 1595 2050Q1681 2050 1720 2103T1758 2272V2411Q1758 2624 1595 2624Q1429 2624 1429 2411Z" />
<glyph unicode=":" glyph-name="colon" horiz-adv-x="1059" d="M705 1332T834 1204Q958 1080 958 904Q959 728 830 601Q705 475 527 475Q349 475 224 600T99 904Q99 1080 225 1204Q351 1332 527 1332Q705 1332 834 1204ZM706 3011T833 2883Q959 2759 958 2583Q958
2407 830 2280Q705 2154 527 2154Q349 2154 225 2279T99 2583Q100 2759 224 2883Q352 3011 528 3011Q706 3011 833 2883Z" />
<glyph unicode=";" glyph-name="semicolon" horiz-adv-x="1059" d="M706 3011T834 2883Q959 2759 959 2583Q959 2407 831 2280Q706 2154 528 2154Q350 2154 225 2279T100 2583Q100 2759 225 2883Q352 3011 528 3011Q706 3011 834 2883ZM500 494Q349 504 238 612Q121
733 121 905Q121 1073 238 1196Q362 1318 531 1318Q704 1318 827 1196Q947 1075 947 905Q947 805 904 722Q899 707 885 686Q860 647 825 612Q822 609 819 607L818 605Q669 443 290 337L292 406Q403 437 500 494Z" />
<glyph unicode="&lt;" glyph-name="less" horiz-adv-x="2038" d="M1938 2083L1046 1693L1938 1303V597L100 1410V1978L1938 2791V2083Z" />
<glyph unicode="=" glyph-name="equal" horiz-adv-x="2066" d="M100 1622H1966V864H100V1622ZM100 2466H1966V1708H100V2466Z" />
<glyph unicode="&gt;" glyph-name="greater" horiz-adv-x="2038" d="M101 2791L1938 1978V1410L100 597V1303L992 1693L100 2083L101 2791Z" />
<glyph unicode="?" glyph-name="question" horiz-adv-x="2947" d="M2847 2769V2331Q2848 2212 2828 2137T2769 1999Q2708 1913 2390 1786T2080 1465V1188H720Q699 1786 1078 2036T1476 2329T1494 2454Q1493 2560 1449 2607T1313 2655Q1133 2655 1133 2474V2347H100V2769Q100
3040 312 3183T946 3326H2004Q2416 3326 2631 3183T2847 2769ZM1581 872T1712 741Q1840 613 1839 433Q1840 254 1710 123Q1581 -5 1399 -5Q1216 -5 1088 123T960 433Q961 613 1088 741Q1219 872 1399 872Q1581 872 1712 741Z" />
<glyph unicode="@" glyph-name="at" horiz-adv-x="5029" d="M2691 1040L2526 985Q2409 945 2364 890Q2318 835 2318 729V678Q2318 491 2501 491Q2596 491 2644 535Q2691 579 2691 678V1040ZM4753 3172Q4929 3020 4929 2690V711Q4929 315 4766 160Q4596 0 4192
0H3934V1H3898V0H1978Q1569 -7 1359 163Q1149 333 1123 798Q1137 1417 1967 1513L2698 1518V1718Q2698 1824 2655 1864Q2611 1905 2516 1905Q2421 1905 2379 1861Q2337 1817 2337 1718V1641H1163V1809Q1163 1960 1205 2062Q1247 2164 1342 2227Q1437 2289 1591
2316Q1744 2344 1967 2344H3094Q3317 2344 3471 2316Q3624 2289 3719 2225Q3814 2161 3856 2058Q3898 1955 3898 1809V655H3937Q4014 657 4048 704Q4084 754 4084 867V2102Q4084 2323 4045 2433Q3967 2648 3736 2648H1343Q1112 2648 1035 2433Q995 2323 995 2102V-4L100
7V2691Q100 3021 276 3173Q452 3326 837 3326L1140 3325V3325H3939V3325H4192Q4577 3325 4753 3172Z" />
<glyph unicode="A" glyph-name="A" horiz-adv-x="3478" d="M1588 1454H1887L1737 2585L1588 1454ZM100 0L735 3326H2743L3378 0H2020L1937 721H1534L1455 0H100Z" />
<glyph unicode="B" glyph-name="B" horiz-adv-x="3267" d="M1451 2570V2099H1600Q1706 2099 1750 2152T1795 2333Q1795 2468 1754 2519T1600 2570H1451ZM1451 764H1600Q1713 764 1754 815T1795 1001V1137Q1795 1268 1754 1321T1600 1374H1451V764ZM100 2V3328H2288Q2525
3328 2692 3283T2964 3144T3118 2898T3167 2537Q3167 2206 3038 2030T2604 1780Q2899 1710 3033 1497T3167 858Q3167 387 2969 195T2288 2H100Z" />
<glyph unicode="C" glyph-name="C" horiz-adv-x="3234" d="M3134 1383V719Q3134 527 3088 392T2940 170T2679 43T2292 2H908Q487 2 294 174T100 719L101 2579Q100 2796 144 2947T283 3193T532 3330T907 3373H2291Q2527 3373 2693 3330T2948 3197Q3134 3017 3135
2579L3134 2141H1786V2382Q1786 2513 1746 2568T1615 2624Q1526 2624 1487 2567T1448 2382L1449 998Q1448 871 1487 814T1615 756Q1786 756 1787 998L1786 1383H3134Z" />
<glyph unicode="D" glyph-name="D" horiz-adv-x="3267" d="M1451 762H1600Q1713 762 1754 813T1795 999V2331Q1795 2466 1754 2517T1600 2568H1451V762ZM100 0V3326H2309Q2540 3326 2703 3285T2969 3158T3120 2935T3167 2609V803Q3167 356 2978 176Q2887 86 2718
43T2309 0H100Z" />
<glyph unicode="E" glyph-name="E" horiz-adv-x="2857" d="M100 0V3326H2757V2568H1441V2044H2634V1286H1441V758H2757V0H100Z" />
<glyph unicode="F" glyph-name="F" horiz-adv-x="2857" d="M100 0V3326H2757V2568H1441V2044H2634V1286H1441V3L100 0Z" />
<glyph unicode="G" glyph-name="G" horiz-adv-x="3259" d="M1788 1201H1603L1602 1942H3137L3141 615Q3159 0 2551 0H1629H908Q687 0 532 43T282 182T143 430T99 799V2663Q100 3036 293 3203T908 3371H2294Q2521 3371 2681 3333T2942 3208T3091 2987T3137 2663L3138
2327H1785L1787 2380Q1787 2388 1789 2402T1790 2425Q1790 2515 1742 2568T1616 2622Q1527 2622 1488 2565T1449 2380L1450 996Q1449 869 1488 814T1617 758Q1707 758 1747 813T1788 996V1201Z" />
<glyph unicode="H" glyph-name="H" horiz-adv-x="3242" d="M100 0V3326H1449V2200H1793V3326H3142V0H1793V1442H1449V0H100Z" />
<glyph unicode="I" glyph-name="I" horiz-adv-x="1552" d="M100 0V3326H1452V0H100Z" />
<glyph unicode="J" glyph-name="J" horiz-adv-x="3241" d="M3141 3326V774Q3141 328 2953 152T2276 -25H931Q703 -25 545 18T288 157T145 405T100 774V1401H1427L1428 971Q1427 844 1468 789T1599 733Q1694 733 1735 788T1778 971L1777 3326H3141Z" />
<glyph unicode="K" glyph-name="K" horiz-adv-x="3431" d="M100 0V3326H1451V1982L1896 3326H3300L2769 1782L3331 0H1942L1451 1520V0H100Z" />
<glyph unicode="L" glyph-name="L" horiz-adv-x="2369" d="M100 0V3326H1442V758H2269V0H100Z" />
<glyph unicode="M" glyph-name="M" horiz-adv-x="4882" d="M2015 0L1451 1831V0H100V3326H2019L2439 1946L2857 3326H4782V0H3428V1831L2867 0H2015Z" />
<glyph unicode="N" glyph-name="N" horiz-adv-x="3619" d="M100 0V3326H1571L2159 1954V3326H3519V0H2112L1457 1565V0H100Z" />
<glyph unicode="O" glyph-name="O" horiz-adv-x="3320" d="M1486 2355L1487 971Q1486 844 1526 789T1659 733Q1751 733 1792 788T1834 971L1833 2355Q1833 2597 1658 2597Q1566 2597 1526 2540T1486 2355ZM931 -25Q703 -25 545 18T288 157T145 405T100 774V2638Q101
3011 299 3178T931 3346H2354Q2587 3346 2751 3308T3019 3183T3172 2962T3220 2638V774Q3220 332 3029 152Q2937 61 2767 18T2354 -25H931Z" />
<glyph unicode="P" glyph-name="P" horiz-adv-x="3283" d="M1641 2576H1458V1642H1635Q1736 1642 1780 1695T1825 1880V2335Q1825 2466 1782 2521T1641 2576ZM100 0V3326H2320Q2553 3326 2716 3285T2984 3158T3135 2935T3183 2609V1692Q3183 1241 2990 1065Q2804
889 2320 889H1458V0H100Z" />
<glyph unicode="Q" glyph-name="Q" horiz-adv-x="3320" d="M1486 2355L1487 971Q1486 844 1526 789T1660 733Q1752 733 1793 788T1835 971L1834 2355Q1834 2597 1659 2597Q1566 2597 1526 2540T1486 2355ZM984 -25H931Q704 -25 545 18T288 157T145 405T100 774V2638Q101
3011 299 3178T931 3346H2354Q2588 3346 2752 3308T3020 3183T3173 2962T3220 2638V774Q3220 332 3029 152Q2937 61 2767 18T2354 -25H2337L2336 -634H983L984 -25Z" />
<glyph unicode="R" glyph-name="R" horiz-adv-x="3283" d="M1641 2576H1458V1642H1635Q1736 1642 1780 1695T1825 1880V2335Q1825 2466 1782 2521T1641 2576ZM1458 889V0H100V3326H2320Q2553 3326 2716 3285T2984 3158T3135 2935T3183 2609V1692Q3183 1241 2990
1065Q2960 1036 2922 1012Q3261 677 3181 2H1955Q2084 1006 1458 889Z" />
<glyph unicode="S" glyph-name="S" horiz-adv-x="3345" d="M961 -1Q534 -1 317 154T108 668V1251H1514V1025Q1514 795 1684 795Q1774 795 1816 852T1858 1045Q1858 1120 1850 1169T1818 1255T1747 1318T1622 1374L669 1727Q337 1850 223 1989Q108 2135 108 2377V2723Q108
3020 325 3172T969 3325H2384Q2812 3325 3028 3173T3245 2723V2342H1848V2381Q1848 2600 1669 2600Q1595 2600 1550 2556T1505 2441Q1505 2405 1512 2380T1546 2330T1621 2280T1752 2223L2861 1794Q2966 1751 3039 1696T3158 1561T3225 1370T3245 1108V751Q3237
329 3031 164T2376 -1H961Z" />
<glyph unicode="T" glyph-name="T" horiz-adv-x="3070" d="M830 0V2568H100V3326H2970V2568H2241V0H830Z" />
<glyph unicode="U" glyph-name="U" horiz-adv-x="3322" d="M1833 3346H3222L3220 2638V774Q3220 332 3029 152Q2937 61 2767 18T2353 -25H930Q702 -25 544 18T288 157T145 405T100 774V3347L930 3346H1486L1487 971Q1486 844 1526 789T1658 733Q1750 733 1791
788T1834 971L1833 3346Z" />
<glyph unicode="V" glyph-name="V" horiz-adv-x="3382" d="M815 2L100 3328H1457L1691 1214L1926 3328H3282L2570 2H815Z" />
<glyph unicode="W" glyph-name="W" horiz-adv-x="4931" d="M2962 3328L3228 1804L3479 3328H4831L4128 2H2754L2464 1411L2174 2H800L100 3328H1453L1703 1804L1969 3328H2962Z" />
<glyph unicode="X" glyph-name="X" horiz-adv-x="3364" d="M100 0L620 1671L124 3326H1455L1684 2397L1913 3326H3241L2750 1671L3264 0H1948L1684 1159L1422 0H100Z" />
<glyph unicode="Y" glyph-name="Y" horiz-adv-x="3603" d="M1116 2V1259L100 3328H1437L1801 2529L2169 3328H3503L2487 1259V2H1116Z" />
<glyph unicode="Z" glyph-name="Z" horiz-adv-x="2832" d="M2732 3328V2632L1727 760H2732V2H100V715L1101 2570H189V3328H2732Z" />
<glyph unicode="[" glyph-name="bracketleft" horiz-adv-x="2095" d="M100 -768V4129H1995V3462H1441V-100H1995V-768H100Z" />
<glyph unicode="\" glyph-name="backslash" horiz-adv-x="2294" d="M2194 -337H1298L100 3658H995L2194 -337Z" />
<glyph unicode="]" glyph-name="bracketright" horiz-adv-x="2095" d="M100 -768V-100H654L655 3462H101V4129H1996L1995 -768H100Z" />
<glyph unicode="^" glyph-name="asciicircum" horiz-adv-x="1839" d="M1312 4148L1739 3326H1066L919 3609L772 3326H100L526 4148H1312Z" />
<glyph unicode="_" glyph-name="underscore" horiz-adv-x="2066" d="M100 -271H1966V-1029H100V-271Z" />
<glyph unicode="`" glyph-name="grave" horiz-adv-x="1278" d="M746 4407L1178 3605H532L100 4407H746Z" />
<glyph unicode="a" glyph-name="a" horiz-adv-x="3309" d="M1874 759V1165L1690 1103Q1558 1058 1508 997T1456 816V759Q1456 550 1661 550Q1767 550 1820 599T1874 759ZM1864 1694L1865 1924Q1866 2043 1817 2088T1661 2133Q1554 2133 1508 2084T1460 1924V1838H145L146
2026Q146 2195 193 2309T346 2494T624 2594T1046 2625H2308Q2558 2625 2730 2595T3009 2492T3162 2305T3210 2026L3209 0H1058Q600 -8 365 182T100 894Q168 1671 1046 1694H1864Z" />
<glyph unicode="b" glyph-name="b" horiz-adv-x="3325" d="M1473 495T1662 495Q1850 495 1850 690V1872Q1849 1978 1805 2022T1662 2067Q1473 2067 1473 1872V690Q1473 495 1662 495ZM1456 2624H2324Q2574 2624 2746 2594T3024 2494T3178 2314T3225 2043L3226
585Q3225 422 3178 311T3025 130T2747 31T2324 0H997Q747 0 576 30T300 128T148 306T101 585L100 3326H1456V2624Z" />
<glyph unicode="c" glyph-name="c" horiz-adv-x="3325" d="M3225 589Q3225 421 3178 309T3025 125T2746 23T2324 -8H997Q747 -8 575 22T299 122T147 306T100 589V2020Q100 2352 297 2486Q399 2552 576 2585Q661 2601 855 2609T1357 2617H2324Q2574 2617 2746 2587T3024
2485T3178 2299T3225 2020L3226 1619H1850L1849 1910Q1849 2110 1661 2110Q1562 2110 1517 2063T1472 1910V695Q1472 495 1661 495Q1759 495 1804 542T1849 695V1116H3225V589Z" />
<glyph unicode="d" glyph-name="d" horiz-adv-x="3325" d="M1854 692L1853 1872Q1853 2067 1665 2067Q1566 2067 1522 2023T1476 1872L1477 692Q1477 497 1666 497Q1854 497 1854 692ZM1870 3326H3226V587Q3225 420 3179 309T3028 130T2751 33T2329 2H1002Q752
2 580 32T302 132T148 312T101 587V2043Q100 2202 147 2313T301 2494T580 2593T1002 2624H1870V3326Z" />
<glyph unicode="e" glyph-name="e" horiz-adv-x="3325" d="M3225 589Q3225 421 3178 309T3025 125T2746 23T2324 -8H997Q747 -8 575 22T299 122T147 306T100 589V2020Q100 2188 147 2302T298 2486T575 2586T997 2617H2324Q2574 2617 2746 2587T3024 2485T3178
2299T3225 2020V1231H1472V695Q1472 495 1661 495Q1759 495 1804 542T1849 695V1031H3225V589ZM1460 1910L1461 1701H1866L1865 1910Q1865 2131 1661 2131Q1554 2131 1507 2080T1460 1910Z" />
<glyph unicode="f" glyph-name="f" horiz-adv-x="2268" d="M448 2628Q449 2796 495 2960T646 3195T923 3295T1349 3326H2168V2837H2132Q1943 2837 1874 2804T1804 2693L1805 2597H2169L2168 2097H1804V0H448V2097H100L101 2597H449L448 2628Z" />
<glyph unicode="g" glyph-name="g" horiz-adv-x="3308" d="M3209 -75Q3209 -318 3161 -433T3009 -620T2733 -723T2312 -754H626L627 -252H1641Q1881 -253 1859 0Q1555 2 1354 2Q1152 2 1046 2Q577 2 339 189T100 751V1877Q101 2251 339 2446T1033 2626H3208L3209
-75ZM1851 1832Q1852 1939 1807 1986T1663 2034Q1470 2034 1469 1832L1470 796Q1469 689 1514 642T1666 595Q1765 595 1808 642T1852 796L1851 1832Z" />
<glyph unicode="h" glyph-name="h" horiz-adv-x="3288" d="M100 0V3326H1456V2626L2246 2621Q2713 2621 2950 2427T3188 1860V0H1833V1823Q1833 2023 1644 2023Q1546 2023 1501 1976T1456 1823V0H100Z" />
<glyph unicode="i" glyph-name="i" horiz-adv-x="1552" d="M100 0V2626H1452V0H100ZM100 2759V3323H1452V2759H100Z" />
<glyph unicode="j" glyph-name="j" horiz-adv-x="1552" d="M100 -750V2626H1452V-750H100ZM100 2759V3323H1452V2759H100Z" />
<glyph unicode="k" glyph-name="k" horiz-adv-x="3313" d="M100 0V3326H1427V1577L1575 2626H2955L2570 1376L3213 0H1837L1427 1221V0H100Z" />
<glyph unicode="l" glyph-name="l" horiz-adv-x="1552" d="M100 0V3326H1452V0H100Z" />
<glyph unicode="m" glyph-name="m" horiz-adv-x="4964" d="M100 0V2624H3943Q4389 2640 4626 2446T4864 1879V0H3522V1834Q3522 2034 3333 2034Q3235 2034 3190 1987T3145 1834V0H1819V1834Q1819 2034 1631 2034Q1532 2034 1487 1987T1442 1834V0H100Z" />
<glyph unicode="n" glyph-name="n" horiz-adv-x="3286" d="M100 0V2624H2253Q2711 2640 2948 2446T3186 1879V0H1831V1834Q1831 2034 1643 2034Q1545 2034 1500 1987T1455 1834V0H100Z" />
<glyph unicode="o" glyph-name="o" horiz-adv-x="3319" d="M1469 1914V699Q1469 499 1657 499Q1756 499 1800 546T1845 699V1914Q1845 2114 1657 2114Q1559 2114 1514 2067T1469 1914ZM100 2024Q100 2192 147 2306T298 2490T574 2590T995 2621H2320Q2569 2621
2740 2591T3018 2488T3172 2302T3219 2024V593Q3219 425 3172 313T3019 129T2741 27T2320 -4H995Q746 -4 574 26T298 126T147 310T100 593V2024Z" />
<glyph unicode="p" glyph-name="p" horiz-adv-x="3325" d="M1472 1935V745Q1472 550 1661 550Q1759 550 1804 595T1849 745V1935Q1849 2130 1661 2130Q1472 2130 1472 1935ZM1456 -754H100V2041Q101 2207 147 2319T298 2498T575 2595T997 2626H2324Q2574 2626
2746 2596T3024 2496T3178 2315T3225 2041L3226 574Q3225 416 3178 304T3025 123T2747 24T2324 -7H1456V-754Z" />
<glyph unicode="q" glyph-name="q" horiz-adv-x="3325" d="M1853 2130T1665 2130Q1476 2130 1476 1935V745Q1476 640 1521 595T1665 550Q1853 550 1853 745V1935Q1853 2130 1665 2130ZM1868 -7H1000Q750 -7 578 23T300 123T146 304T99 574V2041Q100 2203 146 2315T299
2496T578 2595T1000 2626H2327Q2577 2626 2749 2596T3025 2498T3177 2319T3224 2041L3225 -754H1869L1868 -7Z" />
<glyph unicode="r" glyph-name="r" horiz-adv-x="2246" d="M100 0V2616H1416V2411Q1642 2657 2146 2620V1878Q1494 1874 1457 1398V0H100Z" />
<glyph unicode="s" glyph-name="s" horiz-adv-x="3325" d="M3225 589Q3224 421 3177 309T3024 125T2745 23T2323 -8H996Q746 -8 574 22T298 122T146 306T100 589L99 912H1471V695Q1471 495 1660 495Q1758 495 1803 542T1848 695V765Q1848 941 1534 1022L746 1215Q378
1309 251 1423T125 1775L124 2020Q124 2188 171 2302T325 2486T603 2586T1025 2617H2323Q2573 2617 2745 2587T3023 2485T3177 2299T3224 2020L3225 1844H1865V1910Q1864 2110 1676 2110Q1594 2110 1541 2069T1488 1963Q1489 1922 1501 1890T1551 1828T1663 1773T1860
1718L2450 1570Q2909 1452 3065 1313Q3225 1178 3225 904V589Z" />
<glyph unicode="t" glyph-name="t" horiz-adv-x="2281" d="M448 2601L449 3326H1805L1804 2601H2181V2101H1804V0H448V2101H100V2601H448Z" />
<glyph unicode="u" glyph-name="u" horiz-adv-x="3316" d="M3216 2625V0L1049 2Q579 2 340 188T100 749V2625H1466V794Q1466 592 1656 592Q1755 592 1800 639T1846 794V2625H3216Z" />
<glyph unicode="v" glyph-name="v" horiz-adv-x="3443" d="M2676 0H763L100 2625H1459L1717 868L1979 2625H3343L2676 0Z" />
<glyph unicode="w" glyph-name="w" horiz-adv-x="4888" d="M2933 2625L3208 1477L3486 2625H4788L3986 0H2753L2446 1238L2135 0H902L100 2625H1394L1680 1477L1951 2625H2933Z" />
<glyph unicode="x" glyph-name="x" horiz-adv-x="3615" d="M2156 2625H3515L2946 1341L3507 0H2090L1812 1107L1525 0H108L669 1341L100 2625H1459L1803 1642L2156 2625Z" />
<glyph unicode="y" glyph-name="y" horiz-adv-x="3309" d="M1853 2626H3209V-74Q3209 -319 3162 -434T3009 -620T2732 -723T2312 -754H252V-254H1525Q1714 -254 1784 -221T1861 -12Q1554 -16 1353 -16H1046Q575 -16 338 180T100 750V2626H1468L1469 795Q1468 688
1513 641T1665 594Q1763 594 1808 641T1854 795L1853 2626Z" />
<glyph unicode="z" glyph-name="z" horiz-adv-x="2731" d="M100 0V479L1083 2076H194V2625H2565V2142L1583 536H2631V0H100Z" />
<glyph unicode="{" glyph-name="braceleft" horiz-adv-x="2330" d="M2229 3468H2106Q1983 3468 1906 3456T1781 3408T1715 3310T1696 3147V2210Q1696 2073 1666 1982T1564 1828T1375 1730T1086 1669Q1270 1649 1383 1609T1561 1511Q1697 1390 1696 1132V214Q1696
114 1714 54T1778 -41T1903 -89T2102 -102H2229V-776H2004Q1807 -776 1664 -772T1410 -756T1219 -727T1074 -685Q910 -631 840 -514Q771 -393 771 -135V835Q771 1093 640 1199T238 1301H99V2038H250Q509 2034 640 2140T771 2504L772 3517Q771 3654 787 3746T840
3900T934 4002T1075 4071Q1143 4096 1223 4112T1411 4141T1664 4158T2005 4162H2230L2229 3468Z" />
<glyph unicode="|" glyph-name="bar" horiz-adv-x="986" d="M886 4137V-967H100V4137H886Z" />
<glyph unicode="}" glyph-name="braceright" horiz-adv-x="2330" d="M100 4162H325Q522 4162 665 4158T917 4142T1105 4113T1255 4071Q1337 4042 1394 4002T1488 3900T1541 3746T1558 3517V2504Q1558 2246 1689 2140T2079 2038H2230L2231 1301H2092Q1820 1305
1689 1199T1558 835V-135Q1558 -393 1489 -514Q1419 -631 1255 -685Q1190 -710 1110 -726T920 -755T666 -772T325 -776H100V-102H227Q346 -102 426 -90T551 -42T614 54T632 214V1132Q632 1390 768 1511Q833 1569 945 1609T1243 1669Q1071 1694 954 1729T766 1827T663
1981T632 2210V3147Q632 3247 614 3309T549 3407T424 3455T223 3468H100V4162Z" />
<glyph unicode="~" glyph-name="asciitilde" horiz-adv-x="2269" d="M2169 1548Q1691 1242 1141 1435T100 1211V1943Q614 2366 1164 2176T2169 2281V1548Z" />
</font>
</defs>
</svg>
